<?xml version='1.0' encoding='iso-8859-1'?>
<svg version="1.1" xmlns="http://www.w3.org/2000/svg" viewBox="0 0 470 470" xmlns:xlink="http://www.w3.org/1999/xlink" enable-background="new 0 0 470 470">
  <g>
    <path d="m432.5,299.115h-112.906l27.562-15h85.344c4.143,0 7.5-3.357 7.5-7.5s-3.357-7.5-7.5-7.5h-87.252c-1.253,0-2.485,0.313-3.585,0.912l-55.089,29.981c-0.017,0.009-0.034,0.018-0.051,0.028l-51.523,28.04-51.524-28.04c-0.017-0.009-0.034-0.018-0.051-0.028l-55.089-29.981c-1.1-0.599-2.332-0.912-3.585-0.912h-87.251c-4.143,0-7.5,3.357-7.5,7.5s3.357,7.5 7.5,7.5h85.344l27.562,15h-112.906c-20.678,0-37.5,16.822-37.5,37.5s16.822,37.5 37.5,37.5h395c20.678,0 37.5-16.822 37.5-37.5s-16.822-37.5-37.5-37.5zm0,60h-395c-12.406,0-22.5-10.094-22.5-22.5s10.094-22.5 22.5-22.5h140.467l53.448,29.088c1.117,0.608 2.352,0.912 3.585,0.912s2.468-0.304 3.585-0.912l53.448-29.088h140.467c12.406,0 22.5,10.094 22.5,22.5s-10.094,22.5-22.5,22.5z"/>
    <path d="m339.5,426.615c0-4.135-3.365-7.5-7.5-7.5s-7.5,3.365-7.5,7.5 3.365,7.5 7.5,7.5 7.5-3.364 7.5-7.5z"/>
    <path d="m432.5,389.115h-305c-4.143,0-7.5,3.357-7.5,7.5s3.357,7.5 7.5,7.5h296.966c-3.65,25.408-25.563,45-51.966,45h-275c-26.402,0-48.315-19.592-51.966-45h51.966c4.143,0 7.5-3.357 7.5-7.5s-3.357-7.5-7.5-7.5h-60c-4.143,0-7.5,3.357-7.5,7.5 0,37.22 30.28,67.5 67.5,67.5h275c37.22,0 67.5-30.28 67.5-67.5 0-4.142-3.357-7.5-7.5-7.5z"/>
    <path d="m108,172.764c-4.135,0-7.5,3.365-7.5,7.5s3.365,7.5 7.5,7.5 7.5-3.365 7.5-7.5-3.365-7.5-7.5-7.5z"/>
    <path d="m362,172.764c-4.135,0-7.5,3.365-7.5,7.5s3.365,7.5 7.5,7.5 7.5-3.365 7.5-7.5-3.365-7.5-7.5-7.5z"/>
    <path d="m138,193.764c-4.135,0-7.5,3.365-7.5,7.5s3.365,7.5 7.5,7.5 7.5-3.365 7.5-7.5-3.365-7.5-7.5-7.5z"/>
    <path d="m37.5,254.115h395c4.143,0 7.5-3.357 7.5-7.5v-23.614c0-59.275-48.225-107.5-107.5-107.5h-90v-32.375l65.986-30.461c2.655-1.227 4.356-3.885 4.356-6.81s-1.701-5.584-4.356-6.81l-70.342-32.47c-2.322-1.072-5.032-0.887-7.186,0.492-2.154,1.378-3.458,3.76-3.458,6.317v64.782c-0.002,0.11-0.002,0.22 0,0.329v37.005h-90c-59.275,0-107.5,48.225-107.5,107.5v23.614c0,4.144 3.357,7.501 7.5,7.501zm205-229.007l44.948,20.748-44.948,20.749v-41.497zm-197.5,197.893c0-51.005 41.495-92.5 92.5-92.5h195c51.005,0 92.5,41.495 92.5,92.5v16.114h-380v-16.114z"/>
  </g>
</svg>
