<?xml version="1.0" encoding="iso-8859-1"?>
<!-- Generator: Adobe Illustrator 19.0.0, SVG Export Plug-In . SVG Version: 6.00 Build 0)  -->
<svg version="1.1" id="Layer_1" xmlns="http://www.w3.org/2000/svg" xmlns:xlink="http://www.w3.org/1999/xlink" x="0px" y="0px"
	 viewBox="0 0 511.995 511.995" style="enable-background:new 0 0 511.995 511.995;" xml:space="preserve">
<g>
	<g>
		<polygon points="161.848,98.838 51.843,379.666 66.173,385.279 167.6,126.353 385.649,344.4 27.179,484.822 59.527,402.245 
			45.197,396.632 0.007,511.995 413.166,350.152 		"/>
	</g>
</g>
<g>
	<g>
		<rect x="286.688" y="120.129" transform="matrix(0.7071 -0.7071 0.7071 0.7071 22.135 309.087)" width="194.961" height="15.39"/>
	</g>
</g>
<g>
	<g>
		
			<rect x="353.945" y="200.985" transform="matrix(0.9052 -0.4251 0.4251 0.9052 -47.4311 204.7797)" width="162.477" height="15.391"/>
	</g>
</g>
<g>
	<g>
		
			<rect x="222.082" y="69.102" transform="matrix(0.4251 -0.9051 0.9051 0.4251 104.8577 318.6888)" width="162.462" height="15.39"/>
	</g>
</g>
<g>
	<g>
		<rect x="327.381" y="72.728" transform="matrix(0.5488 -0.836 0.836 0.5488 93.828 334.6805)" width="59.121" height="15.391"/>
	</g>
</g>
<g>
	<g>
		
			<rect x="402.041" y="147.358" transform="matrix(0.836 -0.5487 0.5487 0.836 -14.3023 262.2487)" width="59.118" height="15.389"/>
	</g>
</g>
<g>
	<g>
		
			<rect x="172.53" y="61.492" transform="matrix(0.1376 -0.9905 0.9905 0.1376 123.4637 280.1756)" width="100.191" height="15.39"/>
	</g>
</g>
<g>
	<g>
		
			<rect x="392.699" y="281.66" transform="matrix(0.9905 -0.1378 0.1378 0.9905 -35.6477 63.7749)" width="100.194" height="15.391"/>
	</g>
</g>
<g>
	<g>
		<path d="M239.433,302.947l15.585-45.963l-45.963,15.585l-38.897-29.025l0.62,48.529l-39.627,28.023l46.348,14.405l14.406,46.348
			l28.024-39.627l48.528,0.621L239.433,302.947z M212.036,325.731l-14.689,20.772l-7.552-24.295l-24.295-7.552l20.772-14.688
			l-0.325-25.44l20.391,15.216l24.093-8.17l-8.17,24.093l15.216,20.391L212.036,325.731z"/>
	</g>
</g>
<g>
</g>
<g>
</g>
<g>
</g>
<g>
</g>
<g>
</g>
<g>
</g>
<g>
</g>
<g>
</g>
<g>
</g>
<g>
</g>
<g>
</g>
<g>
</g>
<g>
</g>
<g>
</g>
<g>
</g>
</svg>
